<svg version="1.0" xmlns="http://www.w3.org/2000/svg" width="1306.667" height="1141.333" viewBox="0 0 980 856"><path d="M390.5 1.7c-33.6 2.7-62.7 8.5-95 19C179.4 58.3 80.7 148.3 34.2 258.8 19 294.8 6 343.7 1.8 380.5c-1.6 13.9-1.6 79.8 0 94.4 4 35.9 16.8 85 31.1 119 22 52.3 51.4 95.7 92.5 136.6 69.6 69.2 153.2 109.8 251.6 122 17.3 2.2 65.7 3.1 84.5 1.6 48.6-3.8 94.7-15.4 140.5-35.3 40-17.4 56.2-23.5 80.3-30.2 37.4-10.4 68.5-14.3 105.6-13.3 48.3 1.4 82.6 9.9 124.8 31.1 21 10.5 29.5 13.7 36.4 13.7 11 .1 23.4-8 28-18.4 1.9-4.1 2.4-6.9 2.3-13.2-.1-18-7.9-25.4-45.6-43.4-34.5-16.6-65.8-26.1-99.8-30.5-10.9-1.4-31.7-2.8-68.1-4.4l-15.7-.7 10-12.5c32.4-40.9 59.2-91.2 75.7-142.3 7.8-24.2 14.3-55.6 17.3-83.7 1.7-16.6 1.7-68.7 0-84.5-16.1-145.2-96.6-266-223.7-335.8C581.8 24.6 521.1 6.3 467.6 2c-11.5-.9-67-1.2-77.1-.3zm55.7 105.7c15.8 3.1 30.3 10.5 42.5 22 33.5 31.3 40.8 77.6 18.2 115.6-12.2 20.7-32.7 36.4-55.9 43-11.4 3.2-28.9 3.8-41 1.2-43.5-9-75-47.1-75-90.8 0-6.2.7-14.4 1.5-18.2 7.5-35.8 36-65 71-72.7 8.2-1.8 29.6-1.8 38.7-.1zM234.9 263.1c16.6 3.8 32.1 13 45.7 27.1 8.6 8.9 12.4 14.5 17.5 25.2 5.8 12.3 8.2 23.6 8.2 38.1 0 49.2-38.2 89.3-87.8 92.2-12.3.7-21.9-.7-34.8-5.1-23.8-8.1-43.7-26.1-54.3-49-6-13.1-7.8-22.2-7.8-38.6.1-17.2 2-25.4 8.8-39.5 11.6-23.8 31.8-40.9 57.6-48.9 15.5-4.8 30.4-5.3 46.9-1.5zM650 261c11.8 1.5 19 3.6 29.9 8.6 25.6 11.9 43.6 33.7 50.8 61.3 3.6 13.8 3.6 31.6 0 45.2-4.8 18.2-14 32.7-30.5 47.9-18.2 16.8-48 25.2-73.8 20.6-41.5-7.2-71.3-38.2-77.5-80.5-6.1-42.3 22.8-86.6 65.1-99.5 14.1-4.4 22.7-5.2 36-3.6zM442.7 394.5c9.6 4.3 17.9 14.8 20.9 26.5 1.3 5 1.3 7.1.4 11.8-2.5 12-10.8 23.4-20.5 28.2-4.4 2.2-6.3 2.5-15.5 2.5-9.3 0-11.2-.3-16.2-2.7-7.9-3.7-14.2-9.8-18.1-17.7-2.9-5.8-3.2-7.5-3.2-15.1 0-7.4.4-9.3 3.1-15 5.1-10.6 15-18.8 25.8-21 6.4-1.4 17.4-.2 23.3 2.5zM581 514.1c16.9 4 32 12.9 45.1 26.6 11.8 12.4 18.8 25.5 23 43.1 2.8 11.7 2.3 35.7-1 47-7.2 24.8-28.6 48.4-52.8 58.6-13.8 5.8-20.6 7.1-36.8 7-13.3-.1-16-.4-23.9-2.8-34.2-10.4-59.3-37.5-66.1-71.5-2.1-10.3-1.6-32.3 1-41.6 2.4-8.7 10.4-25 15.9-32.2 14.7-19.4 37.7-32.9 61.7-36.3 8.9-1.2 24-.3 33.9 2.1zm-268.5-.6c28.8 5 52.8 23.8 66.6 52 6.3 13 7.9 20.4 7.9 38.3 0 17.4-1.7 26.6-7.1 38-11.7 25.3-33 43.4-60.5 51.8-8 2.5-10.4 2.8-24.4 2.8-14 0-16.4-.3-24.3-2.7-14.9-4.6-27.4-11.7-38.4-22-36.5-34.2-39.3-89.9-6.5-128.6 10.8-12.7 30.8-24.8 47.7-29 10-2.4 26.8-2.7 39-.6z"/></svg>